<?xml version="1.0" standalone="no"?>
<!DOCTYPE svg PUBLIC "-//W3C//DTD SVG 20010904//EN"
 "http://www.w3.org/TR/2001/REC-SVG-20010904/DTD/svg10.dtd">
<svg version="1.0" xmlns="http://www.w3.org/2000/svg"
 width="311.000000pt" height="311.000000pt" viewBox="0 0 311.000000 311.000000"
 preserveAspectRatio="xMidYMid meet">
<metadata>
Created by potrace 1.11, written by Peter Selinger 2001-2013
</metadata>
<g transform="translate(0.000000,311.000000) scale(0.100000,-0.100000)"
fill="#000000" stroke="none">
<path d="M1450 2925 c-91 -26 -199 -73 -242 -106 -98 -76 -233 -226 -243 -272
-4 -17 -9 -38 -10 -45 -2 -7 -11 -38 -20 -70 -9 -31 -23 -81 -31 -110 -8 -29
-12 -57 -9 -62 4 -6 8 -22 11 -36 3 -14 13 -42 24 -62 11 -20 20 -42 20 -48 0
-6 9 -23 20 -37 20 -25 20 -28 4 -85 -11 -38 -14 -73 -10 -96 8 -42 26 -39 26
5 0 17 5 50 11 74 l11 44 49 -1 c39 0 49 -4 55 -20 5 -18 13 -20 72 -16 48 2
66 0 65 -9 -2 -6 8 -21 22 -31 13 -11 21 -22 18 -26 -10 -10 6 -7 44 9 20 9
43 13 49 11 20 -8 60 30 84 79 30 62 50 59 52 -7 1 -29 0 -64 -1 -78 -1 -14
-4 -60 -6 -103 -2 -54 -8 -83 -19 -96 -9 -10 -16 -23 -16 -30 0 -7 -7 -19 -15
-27 -24 -24 -19 -63 10 -74 14 -5 32 -7 40 -3 14 5 14 8 2 22 -8 9 -17 28 -19
44 -4 22 -2 27 16 27 18 0 21 -7 23 -49 2 -57 -10 -65 -88 -61 -30 1 -60 -5
-85 -18 -36 -18 -42 -19 -67 -5 -26 13 -30 13 -43 -4 -19 -25 -12 -39 19 -35
14 1 49 -9 77 -24 55 -28 81 -25 40 6 -30 23 -20 38 15 22 14 -7 44 -12 65
-12 23 0 40 -5 40 -11 0 -6 -6 -9 -13 -6 -7 3 -22 -2 -32 -10 -17 -12 -18 -15
-5 -23 12 -8 11 -10 -7 -10 -27 0 -32 -8 -26 -42 3 -17 13 -28 29 -32 21 -6
23 -10 19 -47 -4 -30 -2 -38 7 -33 6 4 3 -5 -8 -19 -17 -24 -47 -33 -91 -28
-6 1 -14 -3 -18 -9 -9 -15 -56 -12 -89 5 -33 17 -45 13 -26 -10 7 -9 15 -13
18 -10 3 3 25 -6 49 -20 23 -14 43 -22 43 -18 0 4 6 1 13 -7 11 -14 39 -25
115 -45 12 -4 22 -11 22 -17 0 -5 -7 -7 -16 -4 -14 5 -15 4 -4 -9 10 -12 10
-21 1 -42 -10 -21 -9 -29 5 -45 11 -11 24 -16 33 -12 29 11 91 10 91 -2 0 -16
34 -28 38 -15 2 6 7 9 12 6 5 -3 24 4 43 15 34 20 34 20 51 1 11 -12 19 -39
21 -71 1 -28 4 -53 7 -55 2 -2 23 40 47 93 53 118 71 206 53 257 -13 35 -8
100 9 111 18 11 61 108 78 177 17 65 21 72 51 82 48 16 56 35 64 138 3 51 11
108 16 127 6 19 10 56 10 82 0 38 -4 50 -21 59 -16 8 -18 13 -9 19 14 9 36 62
51 125 5 22 12 47 16 55 3 8 7 20 7 25 1 6 7 21 15 34 8 14 11 38 8 58 -4 20
-2 31 4 28 13 -9 11 6 -6 55 -8 23 -15 43 -15 45 0 7 38 0 50 -9 13 -10 13 -9
1 7 -13 16 -13 20 0 28 11 7 9 9 -7 9 -18 0 -52 26 -53 40 0 15 -15 40 -23 40
-12 0 -58 47 -58 59 0 12 -138 141 -150 141 -4 0 -17 9 -30 20 -13 11 -29 20
-36 20 -17 0 -123 50 -130 61 -3 5 -9 7 -14 4 -5 -3 -48 11 -95 30 -95 38
-108 40 -175 20z m-27 -524 c28 -14 45 -17 62 -11 14 5 26 5 33 -2 6 -6 22
-10 36 -10 15 0 29 -4 32 -9 3 -5 -3 -9 -13 -9 -36 0 -45 -15 -23 -40 11 -13
20 -26 20 -30 0 -4 23 -7 52 -8 42 -1 56 -6 70 -24 17 -22 17 -24 -9 -45 -15
-12 -29 -21 -32 -21 -28 3 -66 -29 -96 -80 -11 -18 -27 -32 -37 -32 -9 0 -20
-4 -23 -10 -3 -5 -15 -10 -25 -10 -12 0 -21 -10 -25 -29 -7 -35 -35 -64 -35
-37 0 9 -5 16 -11 16 -5 0 -7 5 -4 11 4 5 1 24 -5 40 -15 35 -10 42 30 42 30
0 37 11 22 35 -13 20 -142 82 -172 82 -32 0 -47 32 -25 54 14 13 88 14 178 3
21 -3 37 -1 37 4 0 6 6 7 13 4 6 -4 -4 7 -23 24 -19 17 -29 31 -22 31 6 0 12
-4 12 -10 0 -16 26 -12 41 7 13 15 10 16 -36 10 -27 -4 -66 -9 -86 -13 -26 -4
-40 -2 -51 10 -11 11 -18 12 -20 4 -2 -6 -9 -9 -14 -5 -15 9 -4 67 12 67 8 0
14 4 14 9 0 16 82 4 123 -18z m-148 -274 c-1 -12 -3 -25 -4 -29 0 -5 -10 -8
-20 -8 -11 0 -26 -7 -34 -15 -8 -8 -17 -12 -20 -9 -3 3 -14 1 -26 -5 -22 -12
-29 -6 -36 31 -7 34 22 53 85 55 53 2 57 0 55 -20z m-221 -21 c-6 -15 -24 -23
-24 -11 0 8 24 34 28 30 1 -1 0 -10 -4 -19z m57 -18 c-11 -11 -14 -10 -18 0
-3 6 -9 10 -14 6 -5 -3 -9 -1 -9 5 0 13 32 20 45 9 5 -5 4 -13 -4 -20z m592 5
c9 -9 -23 -43 -40 -43 -8 0 -12 -4 -9 -9 3 -4 -1 -17 -9 -27 -8 -10 -15 -14
-15 -7 0 6 4 14 9 17 5 3 7 16 4 28 -8 30 39 63 60 41z m-440 -20 c-7 -2 -19
-2 -25 0 -7 3 -2 5 12 5 14 0 19 -2 13 -5z m-15 -68 c-9 -9 -30 14 -23 25 6 9
10 8 17 -4 6 -10 8 -19 6 -21z m452 10 c0 -8 -4 -15 -10 -15 -5 0 -10 7 -10
15 0 8 5 15 10 15 6 0 10 -7 10 -15z m163 -138 c3 2 8 -5 12 -17 6 -20 0 -37
-41 -124 -8 -16 -14 -35 -14 -41 0 -12 -17 -23 -38 -25 -4 -1 -14 -7 -22 -15
-16 -14 -48 -6 -67 16 -8 10 -7 27 4 64 8 28 15 69 15 93 0 35 4 43 22 47 44
9 72 11 98 4 14 -4 29 -5 31 -2z m-258 -138 c11 -17 -1 -21 -15 -4 -8 9 -8 15
-2 15 6 0 14 -5 17 -11z"/>
<path d="M1400 2060 c0 -5 9 -10 20 -10 11 0 20 5 20 10 0 6 -9 10 -20 10 -11
0 -20 -4 -20 -10z"/>
<path d="M970 1800 c0 -12 9 -30 19 -41 19 -21 19 -21 9 20 -11 43 -28 56 -28
21z"/>
<path d="M1375 1720 c-17 -19 -17 -20 1 -27 10 -4 19 -2 22 5 2 7 14 12 27 12
29 0 41 16 19 24 -28 11 -51 6 -69 -14z"/>
<path d="M1390 1619 c0 -5 5 -7 10 -4 6 3 10 8 10 11 0 2 -4 4 -10 4 -5 0 -10
-5 -10 -11z"/>
<path d="M1180 1174 c0 -44 29 -133 99 -304 53 -132 64 -151 121 -209 34 -36
74 -82 88 -103 25 -39 25 -39 45 -19 20 19 20 19 -4 58 -13 21 -35 51 -49 66
-14 16 -32 42 -40 57 -33 64 -94 168 -126 216 -19 28 -34 54 -34 57 0 4 -15
30 -32 59 -18 29 -41 75 -50 103 -16 45 -17 47 -18 19z"/>
</g>
</svg>
